<?xml version="1.0" standalone="no"?>
<!DOCTYPE svg PUBLIC "-//W3C//DTD SVG 20010904//EN"
 "http://www.w3.org/TR/2001/REC-SVG-20010904/DTD/svg10.dtd">
<svg version="1.0" xmlns="http://www.w3.org/2000/svg"
 width="260.000000pt" height="260.000000pt" viewBox="0 0 260.000000 260.000000"
 preserveAspectRatio="xMidYMid meet">
<metadata>
Created by potrace 1.11, written by Peter Selinger 2001-2013
</metadata>
<g transform="translate(0.000000,260.000000) scale(0.100000,-0.100000)"
fill="#000000" stroke="none">
<path d="M1390 2340 c0 -5 -6 -10 -13 -10 -21 0 -118 -110 -131 -149 -16 -47
-15 -157 1 -154 7 2 10 -8 8 -27 -3 -21 2 -34 16 -44 13 -9 16 -16 10 -21 -6
-3 -11 -1 -11 4 0 6 -5 11 -11 11 -5 0 -7 -5 -3 -11 10 -17 17 -147 8 -167 -4
-9 -6 -20 -6 -24 1 -5 -2 -8 -6 -8 -5 0 -9 -6 -10 -12 0 -7 -3 -24 -7 -38 -15
-58 -17 -100 -6 -100 6 0 1 -10 -11 -22 -19 -19 -20 -22 -5 -33 21 -15 22 -25
2 -25 -19 0 -22 -29 -12 -95 7 -43 17 -65 31 -65 7 0 13 -6 14 -12 0 -7 3 -23
6 -35 2 -13 1 -23 -4 -23 -5 0 -5 -13 0 -30 5 -17 9 -47 9 -68 0 -33 7 -77 11
-77 2 0 4 -39 12 -167 2 -27 5 -48 8 -48 3 0 4 -18 4 -40 -1 -22 2 -40 6 -40
4 0 11 -11 14 -25 4 -14 20 -37 37 -52 30 -27 30 -29 26 -102 -2 -54 -8 -77
-20 -86 -9 -7 -15 -14 -12 -17 3 -2 -14 -24 -37 -48 -24 -24 -38 -41 -32 -38
5 4 16 3 24 -2 12 -7 12 -11 -1 -26 -8 -10 -9 -15 -3 -11 7 4 17 0 24 -8 7 -8
9 -15 6 -15 -4 0 -1 -6 6 -14 9 -10 17 -11 26 -4 7 6 14 9 17 7 7 -7 9 -154 3
-165 -4 -5 -3 -15 0 -21 9 -15 56 6 58 25 1 7 3 15 4 20 1 4 2 10 1 14 0 5 5
8 13 8 9 0 15 19 18 62 8 85 22 112 72 134 65 29 71 38 52 84 -8 21 -12 42 -7
45 8 5 6 53 -4 82 -7 20 11 24 41 8 30 -15 47 -4 25 18 -16 16 -14 27 4 21 19
-8 19 10 0 26 -17 14 -9 34 10 26 7 -2 20 3 29 13 19 21 21 35 4 24 -20 -12
-31 -10 -60 10 -37 25 -35 33 10 46 l37 11 -35 -5 c-34 -4 -35 -4 -10 9 14 8
28 12 32 10 12 -8 48 29 49 51 0 11 3 14 6 7 2 -6 9 -9 15 -6 15 10 188 10
188 1 0 -5 5 -5 12 -1 16 10 68 11 68 1 0 -5 6 -5 13 0 17 10 67 11 67 0 0 -4
5 -5 12 -1 16 10 68 11 68 1 0 -5 6 -5 12 0 18 10 108 10 108 -1 0 -5 6 -4 13
1 6 5 18 8 25 7 6 -1 19 -2 27 -3 13 -1 15 -42 14 -303 0 -167 0 -320 0 -340
1 -37 2 -38 39 -38 20 0 42 4 47 8 14 10 17 32 4 32 -5 0 -8 4 -4 9 10 17 13
71 3 77 -5 3 -3 13 4 22 11 13 11 14 -1 7 -11 -6 -12 -5 -5 6 12 20 14 39 3
39 -6 0 -8 4 -4 9 10 17 13 71 3 77 -5 3 -3 13 4 22 11 13 11 14 -1 7 -11 -6
-12 -5 -5 6 12 20 14 39 3 39 -6 0 -8 4 -4 9 10 17 13 71 3 77 -5 3 -3 13 4
22 11 13 11 14 -1 7 -11 -6 -12 -5 -5 6 12 20 14 39 3 39 -6 0 -8 4 -4 9 10
17 13 71 3 77 -5 3 -3 13 4 22 11 13 11 14 -1 7 -11 -6 -12 -5 -5 6 12 20 14
39 3 39 -6 0 -8 4 -4 9 10 17 13 71 3 77 -5 3 -3 13 4 22 11 13 11 14 -1 7
-11 -6 -12 -5 -5 6 12 20 14 39 3 39 -6 0 -8 4 -4 9 10 17 13 71 3 77 -5 3 -3
13 4 22 11 13 11 14 -1 7 -11 -6 -12 -5 -5 6 12 20 14 39 3 39 -6 0 -8 4 -4 9
10 17 13 71 3 77 -5 3 -3 13 4 22 11 13 11 14 -1 7 -11 -6 -12 -5 -5 6 12 20
14 39 3 39 -6 0 -8 4 -4 9 10 17 13 71 3 77 -5 3 -3 13 4 22 11 13 11 14 -1 7
-11 -6 -12 -5 -5 6 12 20 14 39 3 39 -5 0 -4 11 1 25 9 25 2 35 -30 43 -20 5
-51 4 -56 -1 -2 -2 -4 -140 -5 -307 0 -166 -3 -308 -5 -314 -3 -8 -100 -10
-339 -8 -287 2 -335 5 -335 17 0 8 -4 15 -8 15 -10 0 -11 3 -11 110 0 47 0
101 -1 120 -1 19 -3 96 -4 170 -1 74 -6 146 -10 160 -4 14 -9 32 -11 40 -1 8
-5 23 -9 33 -18 51 -20 64 -31 217 -6 84 -19 185 -25 185 -1 0 -3 9 -4 20 -5
44 -50 162 -73 193 -34 46 -113 82 -113 52z m320 -1420 c0 -10 -26 -21 -58
-25 -20 -3 -21 -1 -10 12 23 28 68 37 68 13z"/>
<path d="M617 1694 c-1 -1 -20 -4 -42 -7 -68 -10 -139 -27 -152 -39 -7 -6 -13
-7 -13 -4 0 13 -96 -49 -133 -87 -38 -39 -78 -106 -84 -142 -16 -98 0 -225 32
-247 5 -4 6 -8 2 -8 -4 0 9 -17 30 -38 42 -42 101 -82 148 -99 17 -6 39 -14
50 -19 27 -10 35 -12 70 -19 57 -13 60 -13 60 -15 0 -1 7 -3 15 -5 32 -6 86
-16 111 -20 14 -2 37 -8 50 -13 13 -5 32 -8 42 -7 9 2 17 0 17 -4 0 -4 15 -8
32 -9 18 -2 37 -7 42 -12 6 -6 20 -10 31 -10 12 0 25 -3 29 -7 4 -5 11 -8 15
-8 4 0 31 -15 61 -33 88 -54 126 -131 118 -236 -5 -63 -39 -146 -60 -146 -6 0
-9 -3 -5 -6 10 -11 -44 -53 -107 -84 -113 -55 -247 -66 -419 -34 -61 11 -132
41 -177 74 -37 27 -93 80 -84 80 3 0 -4 14 -17 31 -26 37 -40 86 -43 154 -2
49 -3 50 -39 56 -24 4 -44 1 -55 -7 -9 -7 -12 -14 -6 -14 5 0 10 -19 11 -42 0
-62 9 -95 43 -164 25 -52 84 -122 132 -159 29 -23 138 -70 183 -80 54 -12 68
-14 123 -20 31 -3 57 -7 60 -9 2 -2 17 0 33 4 16 5 29 5 29 1 0 -5 10 -7 23
-5 127 16 160 24 169 38 5 8 8 7 8 -2 0 -10 5 -10 22 2 12 9 30 16 40 16 10 0
18 4 18 10 0 5 11 12 25 16 14 3 25 10 25 15 0 5 4 9 10 9 25 0 130 130 130
161 0 7 7 26 14 41 8 16 10 28 5 28 -6 0 -7 6 0 17 5 10 5 26 0 40 -5 13 -4
25 2 28 5 4 7 11 3 16 -3 5 -8 22 -10 37 -12 65 -58 133 -127 189 -38 30 -152
77 -219 88 -17 3 -34 8 -38 10 -5 3 -234 51 -278 58 -9 1 -23 6 -29 10 -7 5
-17 5 -23 2 -5 -3 -10 -1 -10 5 0 6 -3 9 -8 6 -11 -6 -143 59 -135 67 3 4 0 7
-7 7 -12 0 -25 12 -56 56 -21 30 -39 160 -24 169 5 3 7 14 5 25 -2 11 -1 20 3
20 4 0 13 12 19 28 7 15 23 39 36 53 27 31 134 92 148 84 5 -4 9 -2 9 3 0 5 6
9 13 10 6 0 28 4 47 8 67 13 260 7 260 -8 0 -5 8 -8 19 -8 10 0 36 -7 57 -16
22 -9 41 -17 44 -17 13 -2 135 -117 124 -117 -2 0 2 -10 10 -22 16 -25 39
-101 40 -133 1 -15 10 -21 39 -26 44 -7 68 11 47 36 -7 8 -8 15 -3 15 5 0 10
7 10 15 0 8 -5 15 -10 15 -5 0 -7 9 -4 20 3 11 1 20 -3 20 -5 0 -11 14 -15 31
-11 51 -108 179 -136 179 -5 0 -9 3 -9 8 0 6 -72 42 -85 42 -3 0 -18 6 -34 14
-16 9 -31 12 -35 9 -3 -4 -6 -2 -6 4 0 5 -10 9 -22 8 -13 -1 -27 1 -33 4 -5 4
-17 7 -25 6 -8 0 -29 2 -47 6 -18 4 -36 2 -42 -4 -7 -7 -11 -7 -11 -1 0 7 -65
14 -73 8z"/>
</g>
</svg>
