<svg height="221" preserveAspectRatio="none slice" viewBox="0 0 288 221" width="288" xmlns="http://www.w3.org/2000/svg"><g name="Layer 1"><path d="m258.829.939999h-82.891c-6.134 0-11.106 4.972001-11.106 11.105001 0 1.912.42 3.702 1.326 5.272l41.607 72.061c1.914 3.326 5.506 5.57 9.617 5.57 4.117 0 7.701-2.244 9.619-5.57l41.604-72.061c.908-1.57 1.328-3.36 1.328-5.272.001-6.133-4.966-11.105001-11.104-11.105001z" fill="#3faeee"/><g fill="#44b7b2"><path d="m275.863 6.957c0-3.349 2.715-6.068 6.074-6.068 3.352 0 6.062 2.719 6.062 6.068 0 3.352-2.711 6.071-6.062 6.071-3.359 0-6.074-2.719-6.074-6.071m1.252 0c.01 2.659 2.158 4.808 4.822 4.817 2.652-.009 4.803-2.158 4.811-4.817-.008-2.657-2.158-4.808-4.811-4.81-2.664.002-4.812 2.153-4.822 4.81z"/><path d="m393 248h288v221h-288z" fill-rule="evenodd"/><path d="m284.217 10.003h-.578c-.225 0-.344-.027-.51-.221l-1.645-2.056h-.438v1.948c0 .248-.102.329-.314.329h-.4c-.273 0-.367-.053-.367-.329v-5.453c0-.296.174-.307.367-.307h1.754c1 0 1.209.059 1.566.413.312.326.463.892.463 1.703 0 1.025-.412 1.601-1.344 1.67l1.562 1.866c.181.216.149.437-.116.437m-1.475-5.117c-.244-.12-1.385-.065-1.695-.065v1.999h1.162c.412 0 .607-.067.719-.207.064-.107.131-.218.131-.665 0-.672-.108-.949-.317-1.062z"/><path d="m129.777 103.246c0 .01.01.017.01.022v-.009zm73.032 1.39-.457-.79-52.35-90.674c-4.363-7.559-12.729-12.231998-22.022-12.231998h-42.431c-4.733 0-8.571 3.839998-8.571 8.569998 0 1.471.34 2.881 1.024 4.06l51.785 89.698c2.369 4.031 3.728 8.722 3.728 13.735 0 4.864-1.281 9.424-3.517 13.371l-45.029 78.001c-.683 1.172-1.021 2.584-1.021 4.057 0 4.734 3.836 8.568 8.57 8.568h43.537c9.289 0 17.658-4.67 22.021-12.228l.896-1.56 43.299-74.998.807-1.395c2.207-3.827 3.227-8.203 3.227-12.854 0-4.846-1.242-9.423-3.496-13.329z"/><path d="m83.18 140.865c-.793 0-1.584.327-2.309.457-2.436.527-5.139 1.058-8.037 1.058-1.582 0-3.035-.332-3.957-.726-2.041-.921-2.238-3.493-2.174-6.792h16.079c2.306 0 2.767-.392 2.767-4.016 0-4.223-.392-8.371-2.435-11.334-1.911-2.703-5.208-4.089-10.677-4.089-5.798 0-9.427 1.517-11.4 4.353-2.047 2.896-2.641 6.785-2.641 12.582 0 6.53.924 10.817 3.695 13.385 2.173 2.042 5.735 3.09 10.68 3.09 2.831 0 6.717-.261 9.942-.856 2.047-.327 2.375-1.378 2.375-2.898 0-.726 0-1.518-.127-2.173-.201-.858-.795-2.041-1.781-2.041m-16.477-12.395c0-4.807.992-6.453 5.734-6.453 4.483 0 5.071 1.709 5.071 5.795v1.255h-10.805zm-23.548-13.046c-3.562 0-6.722 1.184-8.902 2.239v-12.191c0-1.251-.524-2.838-2.566-2.838h-2.965c-1.91 0-2.899.594-2.899 2.838v39.875c0 1.578.526 2.629 2.375 2.629h3.489c2.042 0 2.566-1.119 2.566-2.964v-15.102c0-4.726.978-6.338 5.633-6.338 4.406 0 4.988 1.679 4.988 5.688v1.232h-.018c.01.635.016 1.357.016 2.168v12.352c0 1.98.654 2.964 2.368 2.964h3.5c2.035 0 2.566-1.119 2.566-2.964v-20.227c0-4.29-2.045-9.361-10.151-9.361z"/><path d="m18.977 123.327h-7.115v13.25c0 3.095.133 4.283.396 4.808.198.335.532.529.987.529 1.849 0 3.884-.987 5.406-.987 1.451 0 1.783 1.12 1.783 1.841v2.373c0 2.439-.664 3.103-2.769 3.298-2.11.196-3.559.328-5.739.328-6.989 0-8.5-2.57-8.5-10.413v-15.026h-1.846c-1.248 0-1.58-.855-1.58-1.908v-2.836c0-1.65.656-2.174 1.777-2.174h1.649v-5.34c0-2.24.922-2.902 2.834-2.902h2.967c2.041 0 2.635 1.648 2.635 2.902v5.34h6.461c1.447 0 2.24.198 2.24 2.109v2.304c0 2.239-.398 2.504-1.586 2.504z"/></g><path d="m174.128 200.225 5.053 8.552 4.775 2.756c.662.384.797.88.422 1.517l-.541.961c-.43.733-.824.945-1.598.496l-4.598-2.654-10.481-.123c-.293.007-.572-.034-.773-.151-.549-.317-.414-.92-.205-1.278l.689-1.195c.383-.665.756-.745 1.287-.737l7.179.144-3.701-6.226c-.268-.45-.364-.806.021-1.471l.566-.976c.334-.582.795-.668 1.219-.422.266.151.539.549.686.807z" fill="#3faeee"/><path d="m196.514 192.042-.539.93c-.383.664-.857.715-1.508.402l-9.376-4.642c.388.461.945 1.079 1.377 1.563 1.676 1.976 3.5 4.006 4.571 5.369.43.543.584.991.164 1.715l-.332.582c-.426.734-.876.804-1.562.701-1.713-.25-4.413-.767-6.963-1.234-.646-.106-1.436-.326-2.029-.43l8.705 5.804c.602.406.793.845.412 1.502l-.541.937c-.398.687-.867 1.035-1.652.496l-12.277-8.604c-.76-.526-.567-1.065-.258-1.601l.705-1.222c.357-.618.74-.816 1.344-.734 2.521.359 6.938 1.219 10.326 1.811-2.209-2.633-5.166-6.028-6.736-8.032-.371-.481-.391-.906-.031-1.528l.703-1.222c.309-.531.682-.97 1.516-.578l13.585 6.336c.859.4.794.986.396 1.679z" fill="#3faeee"/><path d="m203.475 180.39c-.486.998-.758 1.57-1.35 2.595-.477.825-1.117 1.787-1.781 2.468-2.541 2.655-5.602 1.803-9.447-.416-6.528-3.771-6.558-6.541-4.058-10.873.594-1.023.955-1.554 1.574-2.47.592-.873.949-.992 1.449-.703l.731.421c.795.459.984.75.574 1.454-.475.828-.818 1.164-1.497 2.341-.414.711-1.012 1.903-1.088 2.602-.178 1.642 1.554 2.699 4.108 4.168 2.512 1.453 4.541 2.453 6.01.727.299-.361.705-.957 1.102-1.645.68-1.178.803-1.645 1.273-2.469.408-.709.752-.687 1.555-.224l.734.421c.488.281.572.656.111 1.603z" fill="#3faeee"/><path d="m211.623 165.868-.705 1.221c-.398.688-.844.697-1.381.594l-3.344-.621c-.529.97-.936 1.679-1.505 2.654-.536.933-1.011 1.758-1.493 2.539l2.105 2.406c.486.545.715.916.277 1.666l-.588 1.028c-.438.758-.701.75-1.031.556-.135-.072-.365-.296-.588-.576l-10.078-11.888c-.547-.648-.719-1.07-.242-1.889l.523-.909c.473-.826.93-.892 1.736-.75l15.719 2.678c.139.019.273.041.391.106.55.319.409.828.204 1.185m-14.471-.537 4.211 4.809c.297-.516.621-1.127.992-1.768.398-.693.691-1.148 1.062-1.791z" fill="#3faeee"/></g></svg>