<svg height="63" viewBox="0 0 123 63" width="123" xmlns="http://www.w3.org/2000/svg" xmlns:xlink="http://www.w3.org/1999/xlink"><linearGradient id="a" x1="50%" x2="50%" y1="0%" y2="100%"><stop offset="0" stop-color="#adc32b"/><stop offset=".341657366" stop-color="#adc32b"/><stop offset=".732820472" stop-color="#33a544"/><stop offset="1" stop-color="#33a544"/></linearGradient><g fill="none" fill-rule="evenodd"><path d="m60.0514286 54.9032143h3.7485714v-22.0828572h-3.7485714zm62.0700004-12.6071429v12.6071429h-3.706429v-12.6071429c0-4.0971428-1.979286-6.4471428-5.429286-6.4471428-3.647143 0-5.437143 1.9707143-5.472857 6.0242857l-.043571 13.03h-3.576429l-.087143-13.0307143c0-4.1457143-1.805714-6.0164286-5.855714-6.065-1.5357143 0-3.3285714.0842857-5.0028571.6992857v18.3964286h-3.7485715v-20.795l.1335715-.0471429c2.9142857-1.0328571 5.9092857-1.5792857 8.6628571-1.5792857 3.807857.0528572 6.320714 1.2042857 7.669286 3.5171429 1.406428-2.3057143 3.867857-3.4735715 7.321428-3.4735715 5.891429 0 9.135715 3.47 9.135715 9.7707143zm-39.4285719-9.3478571h3.7492858v20.7942857l-.135.0478571c-3.345 1.1814286-5.8314286 1.6635715-8.5785715 1.6635715-6.68 0-11.1678571-4.0464286-11.1678571-10.0685715v-12.3964285h3.7057143v12.3964285c0 4.0714286 2.9121428 6.7014286 7.42 6.7014286 1.5371428 0 3.3271428-.085 5.0064285-.7014286zm-24.7728571.5285714.17.0842857-1.3842857 3.2464286-.1892857-.0892857c-1.015-.4778572-2.0464286-.7207143-3.0635715-.7207143-3.2378571 0-5.4978571 2.3807143-5.4978571 5.7892857v13.1164286h-3.7064286v-21.9985714h3.2164286l.2935714 2.3835714c1.2778572-1.7771429 3.41-2.785 5.9385715-2.785 1.4671428 0 2.9671428.3457143 4.2228571.9735714zm-20.1807143-.5285714h3.7485714v20.7942857l-.1342857.0478571c-3.3457143 1.1814286-5.8314285 1.6635715-8.5785714 1.6635715-6.6807143 0-11.1685714-4.0464286-11.1685714-10.0685715v-12.3964285h3.7064285v12.3964285c0 4.0714286 2.9121429 6.7014286 7.4192858 6.7014286 1.5371428 0 3.3271428-.085 5.0071428-.7014286zm-21.5214286 10.6571428c-.0442857 4.065-2.9421428 8.2692858-7.71642853 8.2692858-1.63071428 0-3.32714286-.3071429-4.79428571-.8671429v-14.6178571c1.38642857-.4207143 2.95714285-.6257143 4.79428571-.6257143 2.17428573 0 4.06857143.7521428 5.47642853 2.175 1.4464286 1.4628571 2.2628572 3.5278571 2.24 5.6664285zm-7.71928567-11.1235714c-2.27.0364286-5.27214286.21-8.36071429 1.2371429l-.13785714.0464285v28.5778572h3.70714286v-8.1628572c1.47785714.7042858 3.08928571 1.0607143 4.79428571 1.0607143 4.29071433 0 6.96071433-2.0257143 8.44571433-3.7257143 1.8692857-2.14 2.9542857-5.0364285 2.9771428-7.9485714 0-5.5085714-3.9235714-11.085-11.42571427-11.085z" fill="#4e7182"/><path d="m61.9765.05407143c-.0928571-.07214286-.2228571-.07214286-.3157143 0l-.8857143.69285714c-.4071428.31928572-9.9692857 7.90714286-9.9692857 16.05642853 0 6.6285715 4.4807143 10.0985715 6.4071429 11.2828572.06.0364286.1314285.0471428.1971428.03.0678572-.0171429.1242857-.0614286.1592857-.1214286l1.4207143-2.4992857c.0678572-.1192857.0292857-.27-.0864285-.3428571-1.4171429-.8878572-4.7128572-3.4792858-4.7128572-8.3492858 0-5.0914285 5.2807143-10.38999996 7.5507143-12.43142853l.085-.07714286.0857143.07642858c1.7678571 1.58285714 7.535 7.15642861 7.535 12.43214281 0 3.4678572-1.5778572 7.9042858-6.025 8.9935715l-1.2657143-11.8685715c-.0128571-.1307142-.1235714-.23-.2542857-.23-.1314286 0-.2414286.0992858-.255.23l-1.5528572 15.085c-.0071428.0721429.0171429.1435715.0657143.1971429.0485715.0535714.1171429.0835714.1892857.0835714h1.4692858c7.9107142 0 11.0128571-7.23 11.0128571-12.4907143 0-8.15214281-9.5628571-15.7378571-9.97-16.05642853z" fill="url(#a)"/></g></svg>